<?xml version="1.0" encoding="UTF-8"?>
<svg id="Layer_1" data-name="Layer 1" xmlns="http://www.w3.org/2000/svg" viewBox="0 0 1072.26 1059.95">
  <defs>
    <style>
      .cls-1 {
        fill: #e06710;
      }
    </style>
  </defs>
  <path class="cls-1" d="M1071.17,499.28c-7.59-47.91-52.58-80.61-100.5-73.02-36.3,5.75-72.6,9.6-108.9,13.02-36.3,3.34-72.6,5.86-108.9,7.94-6.73.32-13.47.6-20.2.9,66.53-43.57,134.65-84.66,204.79-122.37,51.13-25.28,62.82-97.29,21.73-137.22-33.51-33.7-87.98-33.85-121.68-.34-57.7,56.01-118.72,108.26-181.55,158.27,28.42-75.07,59.66-149.06,94.57-221.46,26.51-50.5-6.37-115.64-63.07-123.79-46.91-7.57-91.07,24.33-98.64,71.24-13.76,79.23-32.41,157.37-53.85,234.76-21.13-77.44-39.35-155.66-53.67-234.76-8.24-56.44-73.12-89.81-123.79-63.07-42.4,21.45-59.38,73.22-37.93,115.62,35.43,72.18,66.27,146.35,94.41,221.55-62.61-50.23-123.33-102.79-181.4-158.36-39.84-40.82-111.94-29.68-137.22,21.73-21.69,42.28-5,94.14,37.27,115.83,71.09,37.56,139.64,79.45,206.61,123.74-80.18-3.83-160.19-10.67-239.83-21.49-56.22-9.61-108.01,41.79-98.24,98.24,7.3,46.95,51.28,79.1,98.24,71.8,78.85-11.29,158.16-17.68,237.63-21.22-36.11,23.55-72.63,46.48-109.67,68.59-31.38,18.57-63.01,36.79-95.76,53.48-7.88,4.06-15.63,9.55-22.23,16.15-34.3,34.3-34.3,89.92,0,124.22,34.3,34.3,89.92,34.3,124.22,0,25.99-25.99,53.1-50.44,80.45-74.55,27.41-24.04,55.29-47.42,83.44-70.43,4.45-3.57,8.92-7.1,13.38-10.66,52.06-40.72,91.97,21.6,39.99,48.54-2.57,1.33-4.65,2.56-6.33,3.7-11.75,7.13-22.87,15.74-33.02,25.9-68.22,68.22-68.22,178.81,0,247.03,68.21,68.22,178.81,68.22,247.03,0,68.22-68.22,68.22-178.81,0-247.03-10.16-10.16-21.27-18.77-33.02-25.9-1.68-1.14-3.76-2.37-6.33-3.7-52.78-27.35-10.82-91.28,42.41-46.65v-.13c31.94,25.85,63.44,52.26,94.4,79.33,27.36,24.11,54.46,48.56,80.45,74.55,6.3,6.24,13.91,11.92,22.23,16.15,43.22,22.02,96.12,4.84,118.14-38.39,22.02-43.22,4.84-96.12-38.39-118.14-32.75-16.69-64.38-34.91-95.76-53.48-31.33-18.64-62.18-37.93-92.77-57.59-5.01-3.29-10.01-6.62-15.01-9.92,42.32,2.16,84.61,5.05,126.84,8.87,36.3,3.42,72.6,7.27,108.9,13.02,8.76,1.35,18.26,1.46,27.48,0,47.91-7.59,80.61-52.58,73.02-100.5ZM536.13,938.85c-29.76,0-53.88-24.12-53.88-53.88s24.12-53.88,53.88-53.88,53.88,24.12,53.88,53.88-24.12,53.88-53.88,53.88Z"/>
</svg>