<?xml version="1.0" encoding="UTF-8"?>
<svg id="Layer_1" data-name="Layer 1" xmlns="http://www.w3.org/2000/svg" viewBox="0 0 983.28 983.28">
  <path d="M501.73.13c-3.07-.08-6.14-.12-9.23-.12-.07,0-.14,0-.21,0-.22,0-.44,0-.66,0C220.55,0,0,220.55,0,491.64s215.73,486.75,482.72,491.53c2.97.08,5.94.11,8.92.11,271.09,0,491.64-220.55,491.64-491.64S768.19,5.52,501.73.13ZM491.64,144.67c.55,0,1.1.02,1.65.02,4.03.01,8.02.1,11.97.27.4.02.81.03,1.21.05,138.26,6.5,226.29,109.47,216.16,235.51-3.37,41.9-14.22,77.16-30.55,106.21-2.59-107.08-89.48-193.59-196.72-195.56-1.24-.06-2.48-.09-3.73-.09-166.6,0-306.08,118.33-338.83,275.35-5.31-24.1-8.14-49.11-8.14-74.78,0-191.32,155.65-346.97,346.97-346.97ZM491.64,547.54c-30.82,0-55.89-25.07-55.89-55.89s25.07-55.89,55.89-55.89,55.89,25.07,55.89,55.89-25.07,55.89-55.89,55.89ZM491.64,838.61c-146.26,0-240.59-105.61-230.13-235.84,3.31-41.17,13.87-75.9,29.72-104.66,3.43,107.61,91.98,194.1,200.41,194.1.14,0,.29-.01.43-.01.14,0,.29.01.43.01,165.9,0,304.9-117.34,338.4-273.38,5.04,23.49,7.71,47.84,7.71,72.81,0,191.32-155.65,346.97-346.97,346.97Z"/>
</svg>