<?xml version="1.0" encoding="UTF-8"?>
<svg id="Layer_1" data-name="Layer 1" xmlns="http://www.w3.org/2000/svg" viewBox="0 0 1006.67 1006.67">
  <defs>
    <style>
      .cls-1 {
        fill: #e06710;
      }
    </style>
  </defs>
  <g>
    <path class="cls-1" d="M744.94,1006.67c-25.98,0-51.97-9.91-71.79-29.73-46.82-46.82-108.32-170.05-169.81-170.05-61.5,0-123,123.23-169.81,170.05-39.65,39.64-103.93,39.64-143.58,0-39.65-39.65-39.65-103.93,0-143.58,172.81-172.8,453.98-172.81,626.8,0,39.64,39.65,39.64,103.93,0,143.58-19.82,19.82-45.81,29.73-71.79,29.73Z"/>
    <path class="cls-1" d="M744.94,0c-25.98,0-51.97,9.91-71.79,29.73-46.82,46.82-108.32,170.05-169.81,170.05-61.5,0-123-123.23-169.81-170.05-39.65-39.64-103.93-39.64-143.58,0-39.65,39.65-39.65,103.93,0,143.58,172.81,172.8,453.98,172.81,626.8,0,39.64-39.65,39.64-103.93,0-143.58-19.82-19.82-45.81-29.73-71.79-29.73Z"/>
  </g>
  <path class="cls-1" d="M1006.67,261.73c0,25.98-9.91,51.97-29.73,71.79-46.82,46.82-170.05,108.32-170.05,169.81,0,61.5,123.23,123,170.05,169.81,39.64,39.65,39.64,103.93,0,143.58-39.65,39.65-103.93,39.65-143.58,0-172.8-172.81-172.81-453.98,0-626.8,39.65-39.64,103.93-39.64,143.58,0,19.82,19.82,29.73,45.81,29.73,71.79Z"/>
  <path class="cls-1" d="M0,261.73c0,25.98,9.91,51.97,29.73,71.79,46.82,46.82,170.05,108.32,170.05,169.81,0,61.5-123.23,123-170.05,169.81-39.64,39.65-39.64,103.93,0,143.58,39.65,39.65,103.93,39.65,143.58,0,172.8-172.81,172.81-453.98,0-626.8-39.65-39.64-103.93-39.64-143.58,0C9.91,209.76,0,235.75,0,261.73Z"/>
  <path class="cls-1" d="M503.34,325.28c-96.47,0-174.68,78.21-174.68,174.68s78.21,174.68,174.68,174.68,174.68-78.21,174.68-174.68-78.21-174.68-174.68-174.68ZM503.34,553.83c-29.76,0-53.88-24.12-53.88-53.88s24.12-53.88,53.88-53.88,53.88,24.12,53.88,53.88-24.12,53.88-53.88,53.88Z"/>
</svg>