<?xml version="1.0" encoding="UTF-8"?>
<svg id="Layer_1" data-name="Layer 1" xmlns="http://www.w3.org/2000/svg" viewBox="0 0 1375.58 598.35">
  <defs>
    <style>
      .cls-1 {
        fill: #de6611;
      }
    </style>
  </defs>
  <path class="cls-1" d="M535.88,176.17v201.7h-32.7v-201.7h32.7Z"/>
  <path class="cls-1" d="M568.5,377.87v-152.8h29.03l1.53,25.67c5.29-9.78,12.38-17.01,21.24-21.7,8.86-4.68,18.28-7.03,28.27-7.03,11,0,21.13,2.5,30.41,7.49,9.27,4.99,16.24,12.48,20.93,22.46,3.26-6.72,7.74-12.32,13.45-16.81,5.7-4.48,12.02-7.79,18.95-9.93,6.92-2.14,13.75-3.21,20.47-3.21,9.78,0,18.95,2.04,27.5,6.11,8.56,4.08,15.48,10.29,20.78,18.64,5.29,8.36,7.95,19.05,7.95,32.09v99.01h-32.7v-93.82c0-12.42-2.96-21.39-8.86-26.89-5.91-5.5-13.45-8.25-22.61-8.25-7.13,0-13.71,1.73-19.71,5.2-6.01,3.47-10.85,8.61-14.52,15.43-3.67,6.83-5.5,15.23-5.5,25.21v83.12h-32.7v-93.82c0-12.42-2.96-21.39-8.86-26.89-5.91-5.5-13.45-8.25-22.62-8.25-6.11,0-12.22,1.63-18.34,4.89-6.11,3.26-11.21,8.36-15.28,15.28-4.08,6.93-6.11,16.1-6.11,27.5v81.29h-32.7Z"/>
  <path class="cls-1" d="M977.64,258.53c-5.91-11.71-13.96-20.73-24.14-27.04-10.19-6.31-21.5-9.47-33.92-9.47-9.17,0-17.57,1.73-25.21,5.2-7.64,3.47-14.01,8.25-19.1,14.36-3.11,3.73-5.71,7.8-7.83,12.21l-1.64-28.71h-29.03v216.98h32.7v-89.42c3.87,7.03,9.17,13.05,15.89,18.06,9.17,6.83,20.27,10.24,33.31,10.24s24.09-3.16,34.38-9.47c10.29-6.31,18.44-15.43,24.45-27.35,6.01-11.92,9.02-26.23,9.02-42.94s-2.96-30.91-8.86-42.63ZM942.65,340.28c-7.44,9.37-17.78,14.06-31.02,14.06-8.56,0-16-2.14-22.31-6.42-6.32-4.28-11.21-10.39-14.67-18.34-3.47-7.95-5.2-17.31-5.2-28.11s1.78-20.42,5.35-28.27c3.56-7.84,8.56-13.95,14.97-18.34,6.42-4.38,13.91-6.57,22.46-6.57,13.04,0,23.23,4.74,30.56,14.21,7.33,9.47,11,22.46,11,38.96s-3.72,29.44-11.15,38.81Z"/>
  <path class="cls-1" d="M1211.02,256.24c-5.5-10.59-13.45-18.95-23.84-25.06s-23.03-9.17-37.89-9.17-27.4,3.16-38.81,9.47c-11.41,6.32-20.32,15.43-26.74,27.35-6.42,11.92-9.63,26.13-9.63,42.63s3.21,30.71,9.63,42.63c6.42,11.92,15.43,21.04,27.05,27.35,11.61,6.32,25.06,9.47,40.34,9.47,10.18,0,19.56-1.43,28.12-4.28s15.94-6.98,22.16-12.38c6.21-5.4,11.16-11.76,14.82-19.1l-25.98-12.22c-3.67,6.93-8.66,12.33-14.97,16.2-6.32,3.87-14.57,5.81-24.75,5.81-9.17,0-17.11-2.03-23.84-6.11-6.72-4.07-11.92-10.08-15.58-18.03-2.6-5.64-4.26-12.17-5.02-19.56h111.98c.41-2.44.71-5.29.92-8.56.2-3.26.31-6.72.31-10.39,0-13.45-2.75-25.47-8.25-36.06ZM1110.78,272.28c3.46-8.05,8.45-14.1,14.97-18.18,6.52-4.07,14.16-6.11,22.92-6.11,12.02,0,21.49,3.72,28.42,11.15,6.09,6.54,9.5,15.55,10.24,27.05h-80.52c.86-5.11,2.18-9.75,3.97-13.91Z"/>
  <path class="cls-1" d="M467.44,286.8c-8.15-8.76-22-15.28-41.56-19.56l-40.95-9.17c-12.02-2.65-20.22-6.31-24.6-11-4.38-4.68-6.57-10.18-6.57-16.5,0-5.5,1.48-10.44,4.43-14.82,2.95-4.38,7.59-7.89,13.9-10.54,6.31-2.64,14.36-3.97,24.14-3.97,13.24,0,24.7,2.6,34.38,7.79,9.67,5.2,18.38,13.7,26.13,25.52l22-21.09c-9.17-13.24-20.38-23.27-33.62-30.1-13.25-6.82-28.93-10.24-47.06-10.24-16.3,0-30.36,2.8-42.17,8.4-11.82,5.61-20.83,13.04-27.05,22.31-1.83,2.73-3.38,5.56-4.67,8.47-9.01-12.67-19.94-22.32-32.79-28.95-13.25-6.82-28.93-10.24-47.06-10.24-16.3,0-30.36,2.8-42.17,8.4-11.82,5.61-20.83,13.04-27.04,22.31-6.22,9.27-9.32,19.61-9.32,31.02,0,8.76,1.93,16.66,5.81,23.68,3.87,7.03,9.78,12.99,17.72,17.88,7.95,4.89,18.03,8.66,30.25,11.31l44.31,10.08c10.79,2.45,18.18,5.91,22.16,10.39,3.97,4.48,5.96,9.68,5.96,15.59s-1.79,11.36-5.35,15.74c-3.57,4.38-8.76,7.69-15.59,9.93-6.83,2.24-14.93,3.36-24.29,3.36-10.6,0-20.22-1.53-28.88-4.58-8.66-3.06-16.25-7.38-22.77-12.99-6.52-5.6-11.92-11.97-16.2-19.1l-22.62,22.61c5.5,8.15,12.53,15.39,21.09,21.7,8.56,6.32,18.54,11.31,29.95,14.97,11.41,3.67,24.24,5.5,38.51,5.5,16.09,0,30.1-2.44,42.02-7.33,11.92-4.89,21.24-11.92,27.96-21.09,1.09-1.49,2.09-3.03,3.01-4.61,15.58,19.21,39.36,33.03,80.76,33.03,16.09,0,30.1-2.44,42.02-7.33s21.24-11.92,27.96-21.09c6.72-9.17,10.09-19.96,10.09-32.39,0-13.45-4.08-24.55-12.22-33.31ZM440.39,339.51c-3.57,4.38-8.76,7.69-15.59,9.93-6.83,2.24-14.93,3.36-24.29,3.36-81.51,0-49-67.54-128.38-85.57l-40.95-9.17c-12.02-2.65-20.22-6.31-24.6-11-4.38-4.68-6.57-10.18-6.57-16.5,0-5.5,1.48-10.44,4.43-14.82,2.95-4.38,7.59-7.89,13.9-10.54,6.31-2.64,14.36-3.97,24.14-3.97,63.34,0,58.78,67.1,129.2,86.05.53.17,1.07.32,1.62.44l44.31,10.08c10.8,2.45,18.18,5.91,22.16,10.39,3.97,4.48,5.96,9.68,5.96,15.59s-1.79,11.36-5.35,15.74Z"/>
  <path class="cls-1" d="M1069.41,350.16c-12.18,3.39-29.88,9.28-29.88-15.08v-178.78h-32.7v181.53c0,14.67,3.21,25.52,9.63,32.55,6.42,7.03,16.45,10.54,30.1,10.54,4.48,0,8.96-.46,13.45-1.38,4.48-.92,12.48-3.3,18.49-6.8h0s-9.09-22.59-9.09-22.59Z"/>
</svg>